<svg width="48" height="57" viewBox="0 0 48 57" fill="none" xmlns="http://www.w3.org/2000/svg">
<path fill-rule="evenodd" clip-rule="evenodd" d="M14.1986 22.8668C24.8688 19.1358 26.685 9.41693 25.3228 0.48108C25.3228 0.158652 25.5952 -0.0716529 25.8677 0.0204692C36.0837 5.08719 47.5711 16.1418 47.5711 32.7238C47.5711 45.4367 37.8545 56.6756 23.7336 56.6756C18.6949 56.908 13.7233 55.4316 9.60365 52.4793C5.48395 49.527 2.45074 45.2669 0.982758 40.3716C-0.485224 35.4762 -0.304372 30.2243 1.49677 25.4448C3.29791 20.6653 6.61676 16.6304 10.9295 13.977C11.2019 13.7927 11.5652 13.977 11.5652 14.2994C11.7014 16.0037 12.1554 20.2873 14.017 22.8668H14.1986Z" fill="url(#paint0_linear_1502_317)"/>
<defs>
<linearGradient id="paint0_linear_1502_317" x1="47.5711" y1="0" x2="-8.26575" y2="46.8475" gradientUnits="userSpaceOnUse">
<stop stop-color="#C04D00"/>
<stop offset="1" stop-color="#FDC126"/>
</linearGradient>
</defs>
</svg>
